Coordinates
version=1
nRows=27
nColumns=12
inDegrees=yes

Units are S.I. units (second, meters, Newtons, ...)
Angles are in degrees

endheader
time	SC_y	SC_z	SC_x	AC_y	AC_z	AC_x	GH_y	GH_z	GH_yy	EL_x	PS_y
       0.0              -16.64        -0.9039          18.27          54.24         -5.918           18.6         -37.56          7.763          33.78          101.5          19.99
   0.01036              -16.64         -0.903          18.27          54.23         -5.919           18.6         -37.58          7.762          33.76          101.5           20.0
   0.02073              -16.65        -0.9021          18.27          54.23          -5.92          18.59          -37.6          7.761          33.74          101.5          20.01
   0.03109              -16.66        -0.9011          18.28          54.23         -5.921          18.59         -37.62           7.76          33.72          101.5          20.03
   0.04146              -16.66        -0.9001          18.28          54.23         -5.922          18.59         -37.65          7.759          33.69          101.6          20.04
   0.05182              -16.67         -0.899          18.28          54.22         -5.923          18.59         -37.67          7.758          33.67          101.6          20.06
   0.06219              -16.68        -0.8978          18.28          54.22         -5.924          18.58          -37.7          7.757          33.64          101.6          20.08
   0.07255              -16.69        -0.8965          18.28          54.22         -5.925          18.58         -37.73          7.756          33.61          101.6           20.1
   0.08292              -16.69        -0.8951          18.28          54.22         -5.927          18.58         -37.76          7.754          33.58          101.6          20.12
   0.09328               -16.7        -0.8937          18.28          54.21         -5.928          18.57          -37.8          7.753          33.55          101.6          20.14
    0.1036              -16.71        -0.8921          18.28          54.21         -5.929          18.57         -37.84          7.751          33.51          101.6          20.16
     0.114              -16.72        -0.8904          18.29           54.2         -5.931          18.56         -37.88          7.749          33.48          101.6          20.19
    0.1244              -16.74        -0.8885          18.29           54.2         -5.933          18.56         -37.92          7.747          33.44          101.6          20.22
    0.1347              -16.75        -0.8866          18.29           54.2         -5.934          18.55         -37.97          7.745          33.39          101.6          20.25
    0.1451              -16.76        -0.8844          18.29          54.19         -5.936          18.55         -38.02          7.743          33.34          101.6          20.28
    0.1555              -16.78        -0.8821          18.29          54.19         -5.939          18.54         -38.07          7.741          33.29          101.6          20.31
    0.1658              -16.79        -0.8796           18.3          54.18         -5.941          18.53         -38.13          7.738          33.23          101.7          20.35
    0.1762              -16.81        -0.8768           18.3          54.17         -5.943          18.53          -38.2          7.735          33.17          101.7          20.39
    0.1866              -16.83        -0.8738           18.3          54.17         -5.946          18.52         -38.27          7.732          33.11          101.7          20.44
    0.1969              -16.85        -0.8706          18.31          54.16         -5.949          18.51         -38.35          7.729          33.03          101.7          20.49
    0.2073              -16.87         -0.867          18.31          54.15         -5.953           18.5         -38.43          7.725          32.95          101.7          20.54
    0.2177               -16.9         -0.863          18.31          54.14         -5.956          18.49         -38.52          7.721          32.86          101.8           20.6
     0.228              -16.93        -0.8586          18.32          54.13          -5.96          18.48         -38.63          7.716          32.76          101.8          20.67
    0.2384              -16.96        -0.8538          18.32          54.12         -5.965          18.46         -38.74          7.711          32.65          101.8          20.74
    0.2488              -16.99        -0.8484          18.33          54.11          -5.97          18.45         -38.87          7.706          32.53          101.8          20.82
    0.2591              -17.03        -0.8423          18.33          54.09         -5.975          18.43         -39.01            7.7           32.4          101.9          20.91
    0.2695              -17.07        -0.8356          18.34          54.08         -5.981          18.42         -39.17          7.693          32.25          101.9          21.01
